<?xml version="1.0" encoding="UTF-8" standalone="no"?>
<!-- Created with Inkscape (http://www.inkscape.org/) -->

<svg
   version="1.1"
   id="svg2"
   xml:space="preserve"
   width="200"
   height="210"
   viewBox="0 0 2560 1440"
   sodipodi:docname="logo_white_background.ai"
   xmlns:inkscape="http://www.inkscape.org/namespaces/inkscape"
   xmlns:sodipodi="http://sodipodi.sourceforge.net/DTD/sodipodi-0.dtd"
   xmlns="http://www.w3.org/2000/svg"
   xmlns:svg="http://www.w3.org/2000/svg"><defs
     id="defs6"><clipPath
       clipPathUnits="userSpaceOnUse"
       id="clipPath16"><path
         d="M 0,1080 H 1920 V 0 H 0 Z"
         id="path14" /></clipPath></defs><sodipodi:namedview
     id="namedview4"
     pagecolor="#ffffff"
     bordercolor="#666666"
     borderopacity="1.0"
     inkscape:pageshadow="2"
     inkscape:pageopacity="0.0"
     inkscape:pagecheckerboard="0" /><g
     id="g8"
     inkscape:groupmode="layer"
     inkscape:label="logo_white_background"
     transform="matrix(1.3333333,0,0,-1.3333333,0,1440)"><g
       id="g10"><g
         id="g12"
         clip-path="url(#clipPath16)"><g
           id="g18"
           transform="translate(1249.5273,400.248)"><path
             d="m 0,0 c -2.257,10.611 -3.958,16.778 -7.527,22.752 -4.001,5.001 -10.223,7.789 -15.585,11.744 -0.056,0.041 -0.008,0.128 0.059,0.109 2.073,-0.593 3.605,-0.341 4.026,1.647 -0.868,33.998 -8.714,60.843 -26.5,77.5 1.545,63.968 -1.462,109.825 -12.036,125.57 -1.05,1.563 -2.722,2.654 -4.599,2.796 -2.483,0.188 -3.095,-1.389 -2.639,-2.325 0.48,-0.983 0.95,-1.987 1.099,-3.144 0.399,-3.109 0.925,-8.397 0.803,-11.577 1.289,-17.633 0.245,-40.803 -2.628,-68.32 -0.796,23.441 -3.933,48.865 -8.5,75.5 0.568,30.352 -15.858,43.28 -35.591,45.284 -2.095,0.213 -4.174,0.547 -6.238,0.962 -75.767,15.218 -158.721,-15.769 -245.171,-55.246 -10.859,3.706 -52.514,24.336 -91.5,43.5 8.531,-9.305 19.867,-18.637 31,-27 -63.022,26.332 -117.112,31.043 -158.5,11.5 -21.347,-27.918 -33.071,-64.864 -35,-111 9.692,5.209 16.211,25.382 22,49 -0.213,-17.324 -1.131,-34.967 -19.5,-60.5 -15.311,-23.691 -22,-55 -21,-86 0.073,-0.827 1.913,-1.169 2,-2 l -11.5,-17.5 v -9 l -9.5,-6.5 c -5.682,1.545 -10.077,1.555 -14,1 -9.283,10.352 -14.581,81.712 -17,158 -4.994,19.981 -21.802,44.203 -43,70 14.848,-6.554 30.767,-14.37 50.977,-26.986 0.17,-0.106 0.239,-0.046 0.152,0.134 -20.24,41.634 -54.114,69.016 -78.129,77.852 48.566,12.974 95.276,38.257 139.302,75.555 0.335,0.283 0.052,0.837 -0.37,0.717 -5.969,-1.704 -14.092,-0.962 -24.432,-0.272 0,0 -3.918,0.362 -5.5,1 -1.441,0.581 -2.035,1.162 -4,2 -2.139,0.912 -4.003,3.213 -6,4 -13.637,4.114 -35.127,3.607 -57.5,0.5 54.296,40.044 119.145,69.706 199.616,83.996 1.006,0.178 1.281,1.487 0.426,2.046 -32.814,21.443 -43.899,63.832 -40.542,111.458 69,-96 212,16 356,-87 27.256,0.974 83.947,-35.036 128.391,-83.969 0.879,-0.968 2.49,-0.253 2.346,1.047 -0.771,6.901 0.344,17.796 2.827,27.211 0.111,0.421 0.719,0.407 0.815,-0.018 2.107,-9.343 5.769,-21.531 10.322,-35.349 0.111,-0.342 0.574,-0.38 0.74,-0.06 14.133,27.348 39.107,50.729 75.559,65.138 -26.16,-27.237 -40.84,-68.994 -49,-119 9.142,-10.292 15.185,-23.331 16,-41 19.354,-5.559 40.247,-21.234 53,-46 -12.471,9.474 -24.713,16.305 -36.895,21.177 -0.598,0.239 -1.13,-0.466 -0.75,-0.985 5.738,-7.829 8.689,-14.324 10.645,-23.192 15.381,-15.169 21.024,-32.443 15,-49 -2.784,7.495 -10.316,16.284 -19.784,25.602 -0.904,0.89 -2.426,0.527 -2.815,-0.681 -3.25,-10.107 -6.313,-39.891 -9.401,-73.921 7.42,-34.733 9.423,-72.268 5,-111 -0.764,-1.538 -1.261,-4.137 -1.49,-7.8 l -0.51,-1.2 -1.035,-1.828 0.035,-2.172 -2.5,-3.5 0.451,-21.21 C 0.43,-0.218 0.054,-0.254 0,0"
             style="fill:#37bfc3;fill-opacity:1;fill-rule:nonzero;stroke:none"
             id="path20" /></g><g
           id="g22"
           transform="translate(1227.25,412.792)"><path
             d="m 0,0 v -26.555 c 0,-1.198 -0.873,-2.219 -2.057,-2.408 -8.902,-1.419 -15.143,-5.778 -18.889,-15.587 -0.035,-0.092 -0.054,-0.191 -0.054,-0.29 v -42.85 c 0.115,-19.227 -14.87,-30.378 -32,-29 h -24.95 c -1.132,0 -2.05,0.917 -2.05,2.048 v 25.625 c 0,0.733 0.594,1.327 1.326,1.327 h 12.604 c 7.3,0.264 13.343,5.82 13.07,12 v 37.935 c 0,0.044 -0.005,0.087 -0.013,0.13 -1.918,9.854 4.9,20.119 17.47,25.33 0.589,0.245 0.637,1.071 0.079,1.382 -8.427,4.688 -15.024,12.108 -17.512,22.125 -0.016,0.064 -0.024,0.132 -0.024,0.199 v 36.828 c 0.162,7 -5.729,12.887 -13.07,13.071 h -11.863 c -1.141,0 -2.067,0.924 -2.067,2.067 v 25.399 c 0,0.847 0.687,1.534 1.533,1.534 H -53 c 17,2 31.562,-9.729 32,-29 V 18.458 c 0,-0.099 0.019,-0.198 0.054,-0.29 C -17.225,8.423 -11.04,4.057 -2.228,2.608 -0.946,2.398 0,1.298 0,0"
             style="fill:#000000;fill-opacity:1;fill-rule:nonzero;stroke:none"
             id="path24" /></g><g
           id="g26"
           transform="translate(612.25,412.792)"><path
             d="m 0,0 v -26.555 c 0,-1.198 0.873,-2.219 2.056,-2.408 8.903,-1.419 15.145,-5.778 18.89,-15.587 0.035,-0.092 0.054,-0.191 0.054,-0.29 v -42.85 c -0.115,-19.227 14.871,-30.378 32,-29 h 24.95 c 1.133,0 2.05,0.917 2.05,2.048 v 25.625 c 0,0.733 -0.594,1.327 -1.326,1.327 H 66.07 c -7.3,0.264 -13.343,5.82 -13.07,12 v 37.935 c 0,0.044 0.004,0.087 0.013,0.13 1.918,9.854 -4.9,20.119 -17.47,25.33 -0.589,0.245 -0.637,1.071 -0.079,1.382 8.426,4.688 15.024,12.108 17.512,22.125 0.016,0.064 0.024,0.132 0.024,0.199 v 36.828 c -0.162,7 5.729,12.887 13.07,13.071 h 11.863 c 1.141,0 2.067,0.924 2.067,2.067 v 25.399 c 0,0.847 -0.687,1.534 -1.533,1.534 L 53,90.31 c -17,2 -31.561,-9.729 -32,-29 V 18.458 C 21,18.359 20.981,18.26 20.946,18.168 17.225,8.423 11.04,4.057 2.228,2.608 0.946,2.398 0,1.298 0,0"
             style="fill:#000000;fill-opacity:1;fill-rule:nonzero;stroke:none"
             id="path28" /></g><g
           id="g30"
           transform="translate(1137.25,474.1016)"><path
             d="m 0,0 v 29 h -155 l -6,-9 v -69 h -56 -1 -56 v 69 l -6,9 H -435 V 0 h 132 v -149 h -132 v -29 h 155 l 6,9 v 82 h 56 1 56 v -82 l 6,-9 H 0 v 29 H -132 V 0 Z"
             style="fill:#37bfc3;fill-opacity:1;fill-rule:nonzero;stroke:none"
             id="path32" /></g><g
           id="g34"
           transform="translate(1127.7305,386.1543)"><path
             d="M 0,0 C -7.456,0 -13.5,6.044 -13.5,13.5 -13.5,20.956 -7.456,27 0,27 7.456,27 13.5,20.956 13.5,13.5 13.5,6.044 7.456,0 0,0 M 0,31 C -9.665,31 -17.5,23.165 -17.5,13.5 -17.5,3.835 -9.665,-4 0,-4 9.665,-4 17.5,3.835 17.5,13.5 17.5,23.165 9.665,31 0,31"
             style="fill:#000000;fill-opacity:1;fill-rule:nonzero;stroke:none"
             id="path36" /></g><g
           id="g38"
           transform="translate(1127.7305,409.1543)"><path
             d="m 0,0 c -5.247,0 -9.5,-4.253 -9.5,-9.5 0,-5.246 4.253,-9.5 9.5,-9.5 5.247,0 9.5,4.254 9.5,9.5 C 9.5,-4.253 5.247,0 0,0"
             style="fill:#000000;fill-opacity:1;fill-rule:nonzero;stroke:none"
             id="path40" /></g><path
           d="m 1049.063,392.991 h 13.2 v 13.327 h -13.2 z"
           style="fill:#000000;fill-opacity:1;fill-rule:nonzero;stroke:none"
           id="path42" /><g
           id="g44"
           transform="translate(1066.0635,391.876)"><path
             d="m 0,0 c 0,-1.497 -1.225,-2.722 -2.722,-2.722 h -15.356 c -1.497,0 -2.722,1.225 -2.722,2.722 v 15.557 c 0,1.497 1.225,2.721 2.722,2.721 H -2.722 C -1.225,18.278 0,17.054 0,15.557 Z m -10.399,25.278 c -9.665,0 -17.5,-7.835 -17.5,-17.5 0,-9.665 7.835,-17.5 17.5,-17.5 9.665,0 17.5,7.835 17.5,17.5 0,9.665 -7.835,17.5 -17.5,17.5"
             style="fill:#000000;fill-opacity:1;fill-rule:nonzero;stroke:none"
             id="path46" /></g><g
           id="g48"
           transform="translate(1094.4258,363.7461)"><path
             d="m 0,0 6.246,-6.246 c 0.56,-0.561 0.739,-1.441 0.342,-2.125 -0.328,-0.567 -0.907,-0.86 -1.486,-0.86 -0.431,0 -0.871,0.169 -1.201,0.5 l -6.358,6.358 c -0.15,0.15 -0.394,0.15 -0.543,0 l -6.358,-6.358 c -0.33,-0.331 -0.771,-0.5 -1.201,-0.5 -0.579,0 -1.158,0.293 -1.486,0.86 -0.397,0.684 -0.219,1.564 0.341,2.124 l 6.327,6.327 c 0.132,0.132 0.132,0.345 0,0.477 l -6.392,6.391 c -0.669,0.66 -0.669,1.75 0,2.41 0.331,0.33 0.77,0.491 1.21,0.491 0.43,0 0.871,-0.161 1.201,-0.491 l 6.349,-6.349 c 0.155,-0.155 0.405,-0.155 0.561,0 l 6.349,6.349 c 0.33,0.33 0.77,0.491 1.201,0.491 0.439,0 0.879,-0.161 1.21,-0.491 0.669,-0.66 0.669,-1.75 0,-2.41 L 0,0.637 C -0.176,0.461 -0.176,0.176 0,0 m -2.729,17.809 c -9.665,0 -17.5,-7.835 -17.5,-17.5 0,-9.665 7.835,-17.5 17.5,-17.5 9.666,0 17.5,7.835 17.5,17.5 0,9.665 -7.834,17.5 -17.5,17.5"
             style="fill:#000000;fill-opacity:1;fill-rule:nonzero;stroke:none"
             id="path50" /></g><g
           id="g52"
           transform="translate(1102.9912,426.9941)"><path
             d="m 0,0 h -22.588 c -1.139,0 -1.85,1.233 -1.281,2.22 l 11.294,19.56 c 0.569,0.988 1.993,0.988 2.562,0 L 1.281,2.22 C 1.851,1.233 1.139,0 0,0 m -11.294,25.761 c -9.665,0 -17.5,-7.835 -17.5,-17.5 0,-9.665 7.835,-17.5 17.5,-17.5 9.665,0 17.5,7.835 17.5,17.5 0,9.665 -7.835,17.5 -17.5,17.5"
             style="fill:#000000;fill-opacity:1;fill-rule:nonzero;stroke:none"
             id="path54" /></g><g
           id="g56"
           transform="translate(1083.6143,431.2549)"><path
             d="M 0,0 H 16.166 L 8.083,14 Z"
             style="fill:#000000;fill-opacity:1;fill-rule:nonzero;stroke:none"
             id="path58" /></g><g
           id="g60"
           transform="translate(809.75,401.1543)"><path
             d="m 0,0 v -3 c 0,-6.6 -5.4,-12 -12,-12 h -28.5 v -28.5 c 0,-6.6 -5.4,-12 -12,-12 h -3 c -6.6,0 -12,5.4 -12,12 V -15 H -96 c -6.6,0 -12,5.4 -12,12 v 3 c 0,6.601 5.4,12 12,12 h 28.5 v 28.5 c 0,6.601 5.4,12 12,12 h 3 c 6.6,0 12,-5.399 12,-12 V 12 H -12 C -5.4,12 0,6.601 0,0"
             style="fill:#37bfc3;fill-opacity:1;fill-rule:nonzero;stroke:none"
             id="path62" /></g><g
           id="g64"
           transform="translate(1108.75,219)"><path
             d="M 0,0 H -2 V 0.02 C -1.34,0.04 -0.67,0.03 0,0 Z"
             style="fill:none;stroke:#000000;stroke-width:0.25;stroke-linecap:butt;stroke-linejoin:miter;stroke-miterlimit:10;stroke-dasharray:none;stroke-opacity:1"
             id="path66" /></g><g
           id="g68"
           transform="translate(1108.75,219)"><path
             d="M 0,0 H -2 V 0.02 C -1.34,0.04 -0.67,0.03 0,0 Z"
             style="fill:none;stroke:#000000;stroke-width:0.25;stroke-linecap:butt;stroke-linejoin:miter;stroke-miterlimit:10;stroke-dasharray:none;stroke-opacity:1"
             id="path70" /></g><g
           id="g72"
           transform="translate(1108.75,219)"><path
             d="M 0,0 H -2 V 0.02 C -1.34,0.04 -0.67,0.03 0,0 Z"
             style="fill:none;stroke:#000000;stroke-width:0.25;stroke-linecap:butt;stroke-linejoin:miter;stroke-miterlimit:10;stroke-dasharray:none;stroke-opacity:1"
             id="path74" /></g><g
           id="g76"
           transform="translate(1108.75,164)"><path
             d="M 0,0 C -0.34,-0.01 -0.67,-0.01 -1,-0.01 V 0 Z"
             style="fill:none;stroke:#000000;stroke-width:0.25;stroke-linecap:butt;stroke-linejoin:miter;stroke-miterlimit:10;stroke-dasharray:none;stroke-opacity:1"
             id="path78" /></g><g
           id="g80"
           transform="translate(1108.75,164)"><path
             d="M 0,0 C -0.34,-0.01 -0.67,-0.01 -1,-0.01 V 0 Z"
             style="fill:none;stroke:#000000;stroke-width:0.25;stroke-linecap:butt;stroke-linejoin:miter;stroke-miterlimit:10;stroke-dasharray:none;stroke-opacity:1"
             id="path82" /></g><g
           id="g84"
           transform="translate(1080.75,192)"><path
             d="m 0,0 c -1.121,-15.553 10.87,-27.95 27,-28.01 0.33,0 0.66,0 1,0.01 H 73 V -42 H 27 c -24.85,0 -44.99,16.17 -46,41 -1.03,25.05 19.78,40.98 45,41 H 73 V 27 C 73,27 26.659,26.982 26,27.02 11,24 1.173,16.269 0,0"
             style="fill:#000000;fill-opacity:1;fill-rule:nonzero;stroke:none"
             id="path86" /></g><g
           id="g88"
           transform="translate(1108.75,164)"><path
             d="M 0,0 C -0.34,-0.01 -0.67,-0.01 -1,-0.01 V 0 Z"
             style="fill:none;stroke:#000000;stroke-width:0.25;stroke-linecap:butt;stroke-linejoin:miter;stroke-miterlimit:10;stroke-dasharray:none;stroke-opacity:1"
             id="path90" /></g><g
           id="g92"
           transform="translate(1153.75,215)"><path
             d="m 0,0 v -4 h -43 c 0,0 -23,0 -22,-20 1,-20 13,-18 19,-19 6,-1 31,-1 31,-1 H 0 v -4 h -32 l -14,1 c 0,0 -23,-1 -23,23 0,24 23,23 23,23 1.311,0.84 21.178,1.969 31,1 z"
             style="fill:#000000;fill-opacity:1;fill-rule:nonzero;stroke:none"
             id="path94" /></g><g
           id="g96"
           transform="translate(1153.75,240)"><path
             d="m 0,0 v -3 h -46 c 0,0 -49,1 -50,-45 -1,-46 50,-46 50,-46 H 0 v -4 h -46 c 0,0 -52,-3 -54,50 -2,53 65,48 65,48 z"
             style="fill:#000000;fill-opacity:1;fill-rule:nonzero;stroke:none"
             id="path98" /></g><g
           id="g100"
           transform="translate(1153.75,240)"><path
             d="m 0,0 v -3 h -46 c 0,0 -49,1 -50,-45 -1,-46 50,-46 50,-46 H 0 v -4 h -46 c 0,0 -52,-3 -54,50 -2,53 65,48 65,48 z"
             style="fill:none;stroke:#000000;stroke-width:1;stroke-linecap:butt;stroke-linejoin:miter;stroke-miterlimit:10;stroke-dasharray:none;stroke-opacity:1"
             id="path102" /></g><g
           id="g104"
           transform="translate(1001,215)"><path
             d="m 0,0 v -4 h -27 v -69 h -32 v 69 h -27 v 4 h 31 v -69 h 24 V 0 Z"
             style="fill:#37bfc3;fill-opacity:1;fill-rule:nonzero;stroke:none"
             id="path106" /></g><g
           id="g108"
           transform="translate(1000.5,233)"><path
             d="m 0,0 h -85 v -14 h 35 v -67 h 15 v 67 H 0 Z"
             style="fill:#37bfc3;fill-opacity:1;fill-rule:nonzero;stroke:none"
             id="path110" /></g><path
           d="m 1001,236 h -86 v 5 h 86 z"
           style="fill:#37bfc3;fill-opacity:1;fill-rule:nonzero;stroke:none"
           id="path112" /><path
           d="m 1038.212,146 h -21.924 v 19 h 21.924 z m -26.462,-3.934 h 31 v 26.867 h -31 z"
           style="fill:#000000;fill-opacity:1;fill-rule:nonzero;stroke:none"
           id="path114" /><path
           d="m 1034.75,162 h -15 v -13 h 15 z"
           style="fill:#000000;fill-opacity:1;fill-rule:nonzero;stroke:none"
           id="path116" /><path
           d="m 900.211,146 h -21.923 v 19 h 21.923 z m -26.461,-3.934 h 31 v 26.867 h -31 z"
           style="fill:#37bfc3;fill-opacity:1;fill-rule:nonzero;stroke:none"
           id="path118" /><path
           d="m 896.75,162 h -15 v -13 h 15 z"
           style="fill:#37bfc3;fill-opacity:1;fill-rule:nonzero;stroke:none"
           id="path120" /><path
           d="m 812.211,146 h -21.923 v 19 h 21.923 z m -26.461,-3.934 h 31 v 26.867 h -31 z"
           style="fill:#000000;fill-opacity:1;fill-rule:nonzero;stroke:none"
           id="path122" /><path
           d="m 808.75,162 h -15 v -13 h 15 z"
           style="fill:#000000;fill-opacity:1;fill-rule:nonzero;stroke:none"
           id="path124" /><path
           d="m 858.917,147.333 h -23 v 89 h 23 z m -28,-5 h 33 v 99 h -33 z"
           style="fill:#37bfc3;fill-opacity:1;fill-rule:nonzero;stroke:none"
           id="path126" /><path
           d="m 855.417,232.333 h -16 v -81 h 16 z"
           style="fill:#37bfc3;fill-opacity:1;fill-rule:nonzero;stroke:none"
           id="path128" /><path
           d="m 743.75,146 h 32 v -4 h -32 z"
           style="fill:#000000;fill-opacity:1;fill-rule:nonzero;stroke:none"
           id="path130" /><g
           id="g132"
           transform="translate(743.75,241)"><path
             d="M 0,0 V -35 H -13 -26 V 0 h -32 v -5 h 28 v -34 h 17 17 v 34 h 28 v 5 z"
             style="fill:#000000;fill-opacity:1;fill-rule:nonzero;stroke:none"
             id="path134" /></g><g
           id="g136"
           transform="translate(751.75,198)"><path
             d="M 0,0 H -21 -42 V 35 H -66 V 22 h 8 V -7 -35 h -8 v -14 h 24 v 35 h 21 21 v -35 h 24 v 14 h -8 v 28 29 h 8 V 35 H 0 Z"
             style="fill:#000000;fill-opacity:1;fill-rule:nonzero;stroke:none"
             id="path138" /></g><g
           id="g140"
           transform="translate(770.75,191)"><path
             d="M 0,0 V -24 H 5 V 0 24 H 0 Z"
             style="fill:#000000;fill-opacity:1;fill-rule:nonzero;stroke:none"
             id="path142" /></g><g
           id="g144"
           transform="translate(747.75,180)"><path
             d="m 0,0 h -17 -17 v -34 h -28 v -4 h 32 v 34 h 13 13 v -34 h 32 v 4 H 0 Z"
             style="fill:#000000;fill-opacity:1;fill-rule:nonzero;stroke:none"
             id="path146" /></g><g
           id="g148"
           transform="translate(690.75,191)"><path
             d="M 0,0 V 24 H -5 V 0 -24 h 5 z"
             style="fill:#000000;fill-opacity:1;fill-rule:nonzero;stroke:none"
             id="path150" /></g></g></g></g></svg>
